<svg width="38" height="38" viewBox="0 0 38 38" fill="none" xmlns="http://www.w3.org/2000/svg">
<path d="M28.3222 17.2531C30.531 16.9428 32.2315 15.0491 32.2362 12.7549C32.2362 10.4939 30.588 8.61919 28.4267 8.26453" stroke="#130F26" stroke-width="3" stroke-linecap="round" stroke-linejoin="round"/>
<path d="M31.2368 22.563C33.3759 22.8828 34.869 23.6317 34.869 25.1755C34.869 26.2379 34.166 26.9282 33.0292 27.3621" stroke="#130F26" stroke-width="3" stroke-linecap="round" stroke-linejoin="round"/>
<path fill-rule="evenodd" clip-rule="evenodd" d="M18.8206 23.2177C13.7318 23.2177 9.38556 23.9887 9.38556 27.0683C9.38556 30.1463 13.7049 30.9396 18.8206 30.9396C23.9095 30.9396 28.2541 30.1764 28.2541 27.0952C28.2541 24.0141 23.9364 23.2177 18.8206 23.2177Z" stroke="#130F26" stroke-width="3" stroke-linecap="round" stroke-linejoin="round"/>
<path fill-rule="evenodd" clip-rule="evenodd" d="M18.8206 18.8225C22.1598 18.8225 24.8673 16.1166 24.8673 12.7758C24.8673 9.4365 22.1598 6.729 18.8206 6.729C15.4813 6.729 12.7738 9.4365 12.7738 12.7758C12.7612 16.1039 15.4481 18.8114 18.7763 18.8225H18.8206Z" stroke="#130F26" stroke-width="3" stroke-linecap="round" stroke-linejoin="round"/>
<path d="M9.31763 17.2531C7.10729 16.9428 5.40838 15.0491 5.40363 12.7549C5.40363 10.4939 7.05188 8.61919 9.21313 8.26453" stroke="#130F26" stroke-width="3" stroke-linecap="round" stroke-linejoin="round"/>
<path d="M6.40286 22.563C4.26377 22.8828 2.77069 23.6317 2.77069 25.1755C2.77069 26.2379 3.47369 26.9282 4.61052 27.3621" stroke="#130F26" stroke-width="3" stroke-linecap="round" stroke-linejoin="round"/>
</svg>
