<svg width="38" height="38" viewBox="0 0 38 38" fill="none" xmlns="http://www.w3.org/2000/svg">
<path fill-rule="evenodd" clip-rule="evenodd" d="M32.9438 12.0707L31.9583 10.3606C31.1246 8.91351 29.2769 8.41432 27.8279 9.24462V9.24462C27.1382 9.65094 26.3151 9.76622 25.5403 9.56503C24.7654 9.36385 24.1024 8.86272 23.6975 8.17215C23.437 7.73322 23.297 7.23327 23.2917 6.72288V6.72288C23.3152 5.90458 23.0065 5.11162 22.4358 4.52462C21.8652 3.93763 21.0813 3.6066 20.2627 3.60693H18.2772C17.4752 3.60692 16.7062 3.92651 16.1405 4.49498C15.5747 5.06344 15.2588 5.83392 15.2627 6.63592V6.63592C15.2389 8.29178 13.8897 9.6216 12.2337 9.62143C11.7233 9.61613 11.2234 9.47614 10.7844 9.21563V9.21563C9.33541 8.38533 7.48774 8.88453 6.654 10.3316L5.59603 12.0707C4.7633 13.5159 5.2557 15.3624 6.69748 16.2011V16.2011C7.63466 16.7422 8.21199 17.7422 8.21199 18.8243C8.21199 19.9065 7.63466 20.9064 6.69748 21.4475V21.4475C5.25753 22.2806 4.76459 24.1226 5.59603 25.5635V25.5635L6.59603 27.2881C6.98667 27.993 7.6421 28.5131 8.41728 28.7334C9.19247 28.9537 10.0235 28.8561 10.7265 28.462V28.462C11.4175 28.0588 12.241 27.9483 13.0139 28.1551C13.7868 28.362 14.4451 28.869 14.8424 29.5635C15.1029 30.0024 15.2429 30.5023 15.2482 31.0127V31.0127C15.2482 32.6856 16.6043 34.0417 18.2772 34.0417H20.2627C21.9299 34.0417 23.2837 32.6944 23.2917 31.0272V31.0272C23.2878 30.2227 23.6057 29.45 24.1746 28.8811C24.7435 28.3122 25.5161 27.9944 26.3207 27.9982C26.8298 28.0119 27.3277 28.1513 27.7699 28.404V28.404C29.2152 29.2368 31.0617 28.7444 31.9004 27.3026V27.3026L32.9438 25.5635C33.3478 24.8702 33.4586 24.0445 33.2519 23.2692C33.0451 22.494 32.5379 21.8331 31.8424 21.433V21.433C31.1469 21.0329 30.6397 20.3721 30.4329 19.5968C30.2262 18.8215 30.337 17.9959 30.741 17.3026C31.0036 16.844 31.3838 16.4638 31.8424 16.2011V16.2011C33.2755 15.3629 33.7668 13.5272 32.9438 12.0852V12.0852V12.0707Z" stroke="black" stroke-width="3" stroke-linecap="round" stroke-linejoin="round"/>
<circle cx="19.2772" cy="18.8243" r="4.17391" stroke="black" stroke-width="3" stroke-linecap="round" stroke-linejoin="round"/>
</svg>
